PathFileType	4	(X/Y/Z)	RBDS019\RBDS019runT25.trc
DataRate	CameraRate	NumFrames	NumMarkers	Units	OrigDataRate	OrigDataStartFrame	OrigNumFrames
150.000000	150.000000	4	33	mm	150.000000	562	4500
Frame#	Time	L.ASIS			L.Heel.Bottom			L.Heel.Lateral			L.Heel.Top			L.Iliac.Crest			L.MT1			L.MT5			L.PSIS			L.Shank.Bottom.Lateral			L.Shank.Bottom.Medial			L.Shank.Top.Lateral			L.Shank.Top.Medial			L.Thigh.Bottom.Lateral			L.Thigh.Bottom.Medial			L.Thigh.Top.Lateral			L.Thigh.Top.Medial			R.ASIS			R.ASY			R.Heel.Bottom			R.Heel.Lateral			R.Heel.Top			R.Iliac.Crest			R.MT1			R.MT5			R.PSIS			R.Shank.Bottom.Lateral			R.Shank.Bottom.Medial			R.Shank.Top.Lateral			R.Shank.Top.Medial			R.Thigh.Bottom.Lateral			R.Thigh.Bottom.Medial			R.Thigh.Top.Lateral			R.Thigh.Top.Medial			
		X1	Y1	Z1	X2	Y2	Z2	X3	Y3	Z3	X4	Y4	Z4	X5	Y5	Z5	X6	Y6	Z6	X7	Y7	Z7	X8	Y8	Z8	X9	Y9	Z9	X10	Y10	Z10	X11	Y11	Z11	X12	Y12	Z12	X13	Y13	Z13	X14	Y14	Z14	X15	Y15	Z15	X16	Y16	Z16	X17	Y17	Z17	X18	Y18	Z18	X19	Y19	Z19	X20	Y20	Z20	X21	Y21	Z21	X22	Y22	Z22	X23	Y23	Z23	X24	Y24	Z24	X25	Y25	Z25	X26	Y26	Z26	X27	Y27	Z27	X28	Y28	Z28	X29	Y29	Z29	X30	Y30	Z30	X31	Y31	Z31	X32	Y32	Z32	X33	Y33	Z33	

563	3.746666666666667	2298.144770501327	982.939371441827	935.2004740512741	1711.185542923931	274.3577071633794	1018.553556453244	1731.621902150966	256.7740817929276	969.6747275802589	1755.602660633044	289.6755898481538	1008.165353863095	2268.182016909399	1052.359903018319	906.0582074258255	1827.830850802523	103.6538962042614	1029.378341344247	1783.343262035957	124.5149023245996	934.4420469091278	2134.784399937954	1037.681948398545	991.4260809153429	1836.82914312538	310.2760302388982	940.3995269808039	1813.648988896712	330.7735119871029	981.25949487491	1877.271679368944	379.0143327825776	925.0820006047588	1857.007976176612	402.426526708847	968.1026903250375	2098.713412129947	649.662959333138	892.5743708424849	2045.561825970368	675.0379901317608	936.2875912766078	2132.894417244073	752.0827126397098	875.1914808998285	2082.053115751533	776.3813254134519	917.6617908860964	2285.778774017258	1001.742882464206	1151.71682437658	2450.909914891094	141.885159652607	1077.631408765208	2284.000256691635	71.22921793825192	1070.200801799205	2309.203709724955	87.75873854154371	1111.548746805155	2288.845486116102	116.4821755517138	1071.904095572517	2228.79299353369	1071.649664987555	1181.742508591095	2478.196307199248	112.3698486469242	1034.258018550122	2453.761603896024	90.22820149321372	1137.47223329289	2132.001696266673	1044.736518541498	1091.937613736074	2347.334283528656	208.388953473915	1131.553395169204	2305.706883850682	213.5769909567468	1095.324758222128	2337.580807975702	286.5703881090957	1151.07675996925	2298.697078009373	291.3208725823111	1113.843446972558	2340.460849571556	624.4705298503085	1183.186283844843	2279.409537917448	603.7976614234353	1152.354302817996	2296.636245658452	723.2075539523605	1205.902428723419	2236.902187441227	701.7050745629984	1179.983722459446	
564	3.753333333333333	2298.719682310842	983.7519831471407	935.7567726391527	1705.953057034088	287.2724208305295	1023.625648740504	1724.473043483623	269.2424819032315	974.0870502690169	1750.750554857304	300.9106863803935	1012.22141636307	2267.750408202478	1053.415337062339	906.9230107750526	1816.403823684735	111.8881660566549	1030.245717402093	1770.2310109875	135.2028148762773	936.6086445244846	2135.259319434487	1038.111977598945	992.5046174660609	1831.395517540391	318.3086755124597	942.8646371631351	1809.743717252445	339.5374256154814	984.158880171847	1874.20838493527	385.5073283788387	927.0791515582757	1855.639442620673	409.5434647403747	970.4814891416243	2102.749769280272	648.3733274063258	892.580644684512	2049.03606503146	673.3673021839405	935.8514013003502	2136.166929588413	751.0317096545672	875.2669907112388	2084.634408173972	775.0201360986938	917.1761580434415	2286.100833014333	1000.902415388254	1152.448664605127	2460.809391449384	141.7846017045646	1076.883788370748	2297.507832305603	62.74102241781675	1070.669935529066	2322.420880622887	80.05833331826518	1111.919979319283	2300.000625639604	108.2011099388381	1072.856287966159	2229.247927456152	1070.431158983939	1182.885508521022	2489.107647743976	114.3883456444813	1032.804026888442	2467.059726001337	89.64513450191608	1136.121967226571	2132.523007320548	1044.507691781655	1093.17976587402	2354.973387112628	203.4936524949946	1132.249414613554	2312.808288546811	207.0990694169782	1096.505468362839	2342.256429198439	281.121437424695	1152.298186771037	2302.708744918089	284.497878255436	1115.449688210823	2335.097794867997	621.0149714257517	1184.402728920341	2274.009136693317	601.9710144412468	1152.581447130343	2293.089680218594	720.6089605580702	1207.100803188761	2233.274637494654	700.6077218709339	1180.199192485969	
565	3.76	2299.231241572034	984.1792074738944	936.3143892520777	1701.415826507808	300.0566988144706	1028.634891379643	1718.076313403396	281.7284754620696	978.4931042466776	1746.474483949856	312.116008111105	1016.234580210878	2266.938762133177	1054.163286601239	907.7079293656102	1805.67549534949	120.5320322189358	1031.187314582015	1758.021590340447	146.3296636622987	938.8189492808999	2135.573040447733	1037.934527177515	993.658323562986	1826.646676863561	326.3931981382636	945.386105952189	1806.597008625399	348.3357934804429	987.0847051619147	1871.864974198161	391.8913931500064	929.1031477182075	1855.099730010279	416.5188957939598	972.8864353939749	2107.225581261719	646.3166760335987	892.5372794673938	2052.947223517672	670.765601820073	935.4504867549334	2139.637172519254	749.2925654513917	875.4160560843286	2087.429704357648	772.8231854445246	916.8555247197123	2286.251386858958	999.6964052414252	1153.285264561788	2468.563244797273	141.676272861119	1076.414709481101	2308.751535457421	55.24220028420992	1071.325036310312	2333.387515348859	73.29087352621234	1112.45639411131	2309.15198924807	100.8069753827147	1073.9084218259	2229.555715696862	1068.756793319357	1184.001661415382	2497.648910813531	116.1165439794073	1031.753847729118	2477.831169631652	89.26245867943818	1135.087778924823	2132.873345676143	1043.585131966138	1094.466551409075	2360.936658809553	199.1355496926607	1133.018459442317	2318.355755071431	201.2754029234871	1097.658882703733	2345.681592047604	276.2261483437201	1153.411272817176	2305.600927518839	278.3195193265638	1116.858498828354	2329.671117279414	617.4445649749243	1185.46036578263	2268.681068081673	599.9868013930156	1152.483357666611	2289.30985994258	717.7639905092528	1208.209599342794	2229.514338502016	699.2205084829981	1180.205700747952	
566	3.766666666666667	2299.690793693213	984.171284320087	936.9030556231227	1697.741152259497	312.7081280500669	1033.491331645234	1712.621007340332	294.2227162419462	982.8103896258256	1742.960528284128	323.2765174263758	1020.136546485659	2265.818051527827	1054.50884694523	908.3991864723838	1795.755493830237	129.5356239751174	1032.144509756984	1746.883746912844	157.8547491395563	941.0106726536378	2135.745901219568	1037.126051242695	994.8279814518631	1822.739569340633	334.4755481003317	947.8993914945402	1804.337525449983	357.0958754755991	989.9631455189559	1870.37360045411	398.1167767552133	931.1192400815343	1855.47190885554	423.2859264205925	975.2629066721984	2112.027543265564	643.5306008711174	892.4576197025991	2057.225950520187	667.2598571362171	935.1432363674803	2143.194321522148	746.8943254085061	875.6642172735085	2090.3774627506	769.8072008496717	916.7718884925897	2286.204085112465	998.1407597322686	1154.22064904606	2474.124246129732	141.2961100527887	1076.209454973351	2317.477538688262	48.63160242496193	1072.178852559854	2341.871262881815	67.34725976163845	1113.167025305981	2316.113116702304	94.22948384020853	1075.046635643765	2229.7004992851	1066.706675893638	1185.039558841201	2503.77777862252	117.2063819863105	1031.108930530244	2485.94500381455	88.77825819622829	1134.384198908268	2133.045891433097	1041.969375726245	1095.736153271885	2365.127824428239	195.1448052652899	1133.843712304808	2322.242076344357	195.9760464297326	1098.765511497038	2347.784388503459	271.7599867539482	1154.402360923918	2307.301765644883	272.6960440519312	1118.058065211583	2324.278041475983	613.8203417475925	1186.314796170905	2263.477272956308	597.8474670927836	1152.12723576574	2285.389350043723	714.7470772632281	1209.16006416344	2225.679038237477	697.5686683329782	1180.03147728105	
